/* XPM */ 
static const unsigned char * fasttransresult_xpm[] = {
"24 24 191 2",
"  	c None",
"! 	c black",
"# 	c #F7BE76",
"$ 	c #F7B96A",
"% 	c #F6B15C",
"& 	c #F6AF56",
"' 	c #F6AE55",
"( 	c #F8BB6F",
") 	c #F7B96D",
"* 	c #F6AC52",
"+ 	c #F4A43E",
", 	c #F4A138",
"- 	c #F49F34",
". 	c #F49E33",
"0 	c #F49E32",
"1 	c #F6AE54",
"2 	c #F6B05A",
"3 	c #F39F37",
"4 	c #F49B2E",
"5 	c #F49C30",
"6 	c #F49D32",
"7 	c #F6AD54",
"8 	c #F39929",
"9 	c #F39725",
": 	c #F39A2B",
"; 	c #F49C2F",
"< 	c #F39726",
"= 	c #F3921C",
"> 	c #F39522",
"? 	c #F39927",
"@ 	c #F39B2B",
"A 	c #F49E31",
"B 	c #F4A038",
"C 	c #F28F15",
"D 	c #F3921A",
"E 	c #F3941F",
"F 	c #F39623",
"G 	c #F39926",
"H 	c #F39A2A",
"I 	c #F39B2F",
"J 	c #F49E34",
"K 	c #F49F35",
"L 	c #F59F35",
"M 	c #F59F34",
"N 	c #F6B25F",
"O 	c #F2941F",
"P 	c #F28E11",
"Q 	c #F29017",
"R 	c #F2911B",
"S 	c #F3941E",
"T 	c #F39622",
"U 	c #F49B2D",
"V 	c #F6A747",
"W 	c #F7B05B",
"X 	c #F7B35F",
"Y 	c #FBB35A",
"Z 	c #FCB25A",
"[ 	c #FCB258",
"] 	c #FDBB6E",
"^ 	c #F5AC51",
"_ 	c #F29117",
"` 	c #F28D11",
"a 	c #F28F14",
"b 	c #F2921A",
"c 	c #F49726",
"d 	c #F7AB53",
"e 	c #F4A441",
"f 	c #F28F13",
"g 	c #F28E12",
"h 	c #F69F3A",
"i 	c #BAF190",
"j 	c #A8E86B",
"k 	c #9BE556",
"l 	c #9BE554",
"m 	c #9FE65D",
"n 	c #B8ED81",
"o 	c #6AC6F7",
"p 	c #4EBBF1",
"q 	c #4DBBF1",
"r 	c #6AC6F4",
"s 	c #F4A13A",
"t 	c #F6A646",
"u 	c #A7E86B",
"v 	c #80DC25",
"w 	c #77DA17",
"x 	c #77DA16",
"y 	c #7CDB1F",
"z 	c #A2E658",
"{ 	c #62BFEF",
"| 	c #41B2E6",
"} 	c #40B2E6",
"~ 	c #61BEEA",
" !	c #F4A139",
"!!	c #F6A647",
"#!	c #72D90D",
"$!	c #9DE550",
"%!	c #63C0F0",
"&!	c #42B3E7",
"'!	c #41B3E7",
"(!	c #62BFEB",
")!	c #F6A645",
"*!	c #9BE555",
"+!	c #9EE551",
",!	c #62BFF0",
"-!	c #F3A038",
".!	c #F18C10",
"0!	c #F18D11",
"1!	c #F18D10",
"2!	c #F18E13",
"3!	c #F5A645",
"4!	c #7FDC25",
"5!	c #AEEB61",
"6!	c #5EBDEF",
"7!	c #40B2E7",
"8!	c #63C1EB",
"9!	c #FFAC48",
":!	c #FF9C26",
";!	c #FF9C27",
"<!	c #FF9B25",
"=!	c #FFAD4D",
">!	c #B9EF80",
"?!	c #A3E758",
"@!	c #9EE650",
"A!	c #9FE651",
"B!	c #AFEA61",
"C!	c #A2DFB4",
"D!	c #4EB7EA",
"E!	c #3EB1E6",
"F!	c #44B4E7",
"G!	c #6DC5ED",
"H!	c #56BAEB",
"I!	c #3BAFE6",
"J!	c #3AAFE6",
"K!	c #3EB1E7",
"L!	c #41B2E7",
"M!	c #49B6E8",
"N!	c #7DCBEF",
"O!	c #5AC2F6",
"P!	c #41B9F5",
"Q!	c #41B8F3",
"R!	c #40B8F3",
"S!	c #40B8F2",
"T!	c #46B7ED",
"U!	c #49B5EB",
"V!	c #49B5EC",
"W!	c #4AB5EC",
"X!	c #4BB6EC",
"Y!	c #3FB1E8",
"Z!	c #32ACE5",
"[!	c #37AFE6",
"]!	c #3AB0E6",
"^!	c #51B9E8",
"_!	c #48B5E7",
"`!	c #23A6E2",
"a!	c #24A6E2",
"b!	c #24A6E3",
"c!	c #23A6E3",
"d!	c #26A7E3",
"e!	c #2AA9E4",
"f!	c #2FABE5",
"g!	c #33ACE5",
"h!	c #37AEE6",
"i!	c #66C1EC",
"j!	c #48B5E8",
"k!	c #21A6E3",
"l!	c #22A6E3",
"m!	c #24A7E3",
"n!	c #27A7E3",
"o!	c #2BA8E4",
"p!	c #2EABE5",
"q!	c #35ADE5",
"r!	c #4CB6E8",
"s!	c #7DCAEF",
"t!	c #25A7E3",
"u!	c #29A9E4",
"v!	c #2CA9E5",
"w!	c #3EB0E6",
"x!	c #6CC4EC",
"y!	c #21A5E3",
"z!	c #22A5E3",
"{!	c #27A8E3",
"|!	c #65C1EC",
"}!	c #47B5E9",
"~!	c #26A7E4",
" #	c #2BA9E4",
"!#	c #51B9E9",
"##	c #6DC4EC",
"$#	c #65C0EA",
"%#	c #4AB6E8",
"&#	c #57BAEA",
"'#	c #67C1EC",
"                                                ",
"              # $ % & ' ' ' ' ' ' ' ' ' ' ' (   ",
"          ) * + , - . 0 0 0 0 0 0 0 0 0 0 0 1   ",
"        2 3 4 5 6 0 . . . . . . . . . . . 0 '   ",
"      7 8 9 : ; 6 . . . . . . . . . . . . 0 '   ",
"    2 < = > ? @ ; 6 0 0 0 0 0 0 0 0 0 0 0 A 1   ",
"    B C D E F G H I J K K K K K K L L L L M &   ",
"  N O P Q R S T U V W X X X X Y Z [ [ [ [ [ ]   ",
"  ^ _ ` a Q b c d                               ",
"  e f P g f Q h   i j k l m n   o p p p p q r   ",
"  s ` g g ` C t   u v w x y z   { | | | | } ~   ",
"   !` g g P a !!  k x #!#!x $!  %!&!&!&!&!'!(!  ",
"   !` g g P a )!  *!x #!#!x +!  ,!&!'!&!&!'!(!  ",
"  -!.!0!0!1!2!3!  m y x w 4!5!  6!7!&!&!&!&!8!  ",
"  9!:!;!:!<!;!=!  >!?!@!A!B!C!  D!E!7!&!'!F!G!  ",
"                              H!I!J!K!7!L!M!N!  ",
"  O!P!P!P!Q!R!S!T!U!V!W!X!U!Y!Z!Z![!]!K!K!^!    ",
"  _!`!a!a!a!b!a!b!c!c!c!c!b!d!e!f!g!h!]!K!i!    ",
"  j!k!l!l!l!l!l!l!l!l!l!l!c!m!n!o!p!Z!q!r!s!    ",
"  j!l!c!c!c!c!c!c!c!c!c!c!c!c!t!n!u!v!w!x!      ",
"  j!l!c!c!c!c!c!c!c!c!c!c!c!l!y!z!{!E!|!        ",
"  }!k!l!l!l!l!l!l!l!l!l!l!c!~! #q!!###          ",
"  $#}!j!j!j!j!j!j!j!j!j!j!%#&#'#                ",
"                                                "};